<svg width="50" height="22" viewBox="0 0 50 22" fill="none" xmlns="http://www.w3.org/2000/svg">
<g clip-path="url(#clip0)">
<path d="M9.14844 13.6494C8.93424 13.6494 8.75195 13.6038 8.60156 13.5127C8.45573 13.4215 8.33724 13.3053 8.24609 13.1641C8.15951 13.0273 8.0957 12.8724 8.05469 12.6992C8.01823 12.526 8 12.3574 8 12.1934C8 12.0521 8.01823 11.9199 8.05469 11.7969C8.0957 11.6693 8.13216 11.5827 8.16406 11.5371C8.18685 11.5052 8.21647 11.471 8.25293 11.4346C8.28939 11.3981 8.3418 11.373 8.41016 11.3594C8.48307 11.3457 8.55599 11.3298 8.62891 11.3115C8.69271 11.2979 8.75423 11.2865 8.81348 11.2773C8.87728 11.2682 8.93424 11.2591 8.98438 11.25C8.91602 11.3275 8.85905 11.4163 8.81348 11.5166C8.7679 11.6169 8.73372 11.7217 8.71094 11.8311C8.68815 11.9359 8.6722 12.0384 8.66309 12.1387C8.65397 12.2389 8.65397 12.3301 8.66309 12.4121C8.67676 12.64 8.74284 12.8268 8.86133 12.9727C8.98438 13.1139 9.11882 13.1846 9.26465 13.1846C9.37858 13.1846 9.47656 13.1504 9.55859 13.082C9.64062 13.0182 9.70898 12.9339 9.76367 12.8291C9.81836 12.7243 9.86165 12.6035 9.89355 12.4668C9.92546 12.3301 9.94824 12.1934 9.96191 12.0566C9.97559 11.9154 9.9847 11.7786 9.98926 11.6465C9.99382 11.5098 9.99609 11.3913 9.99609 11.291C9.99609 11.1224 9.98698 10.9378 9.96875 10.7373C9.95508 10.5368 9.93685 10.3363 9.91406 10.1357C9.89128 9.93522 9.86621 9.74609 9.83887 9.56836C9.81608 9.38607 9.79557 9.2334 9.77734 9.11035C9.59505 9.1377 9.4401 9.17188 9.3125 9.21289C9.1849 9.25391 9.06641 9.28809 8.95703 9.31543C8.9069 9.32454 8.875 9.31543 8.86133 9.28809C8.78385 9.16048 8.74284 9.04655 8.73828 8.94629C8.73372 8.84603 8.73828 8.77083 8.75195 8.7207C8.75651 8.69792 8.78158 8.67741 8.82715 8.65918C8.99121 8.60449 9.20312 8.55208 9.46289 8.50195C9.72266 8.45182 10.0166 8.41992 10.3447 8.40625C10.4359 8.40625 10.5225 8.40853 10.6045 8.41309C10.6774 8.41764 10.7526 8.42676 10.8301 8.44043C10.9121 8.4541 10.985 8.47461 11.0488 8.50195C11.0762 8.52474 11.0967 8.55436 11.1104 8.59082C11.124 8.62272 11.1354 8.6569 11.1445 8.69336C11.1536 8.73893 11.1582 8.78451 11.1582 8.83008C11.1582 8.88021 11.1536 8.93034 11.1445 8.98047C11.1354 9.02604 11.124 9.07617 11.1104 9.13086C11.0967 9.18555 11.0785 9.24023 11.0557 9.29492C11.0329 9.26758 11.0078 9.24251 10.9805 9.21973C10.9577 9.19238 10.9235 9.1696 10.8779 9.15137C10.8324 9.12858 10.7731 9.11263 10.7002 9.10352C10.6273 9.08984 10.5293 9.08073 10.4062 9.07617C10.4473 9.33138 10.4814 9.55469 10.5088 9.74609C10.5407 9.9375 10.5658 10.1243 10.584 10.3066C10.6068 10.4889 10.6227 10.6803 10.6318 10.8809C10.6455 11.0814 10.6523 11.3184 10.6523 11.5918C10.6523 11.9655 10.6113 12.2845 10.5293 12.5488C10.4473 12.8086 10.3356 13.0205 10.1943 13.1846C10.0576 13.3486 9.89811 13.4671 9.71582 13.54C9.53353 13.613 9.3444 13.6494 9.14844 13.6494ZM13.2979 8.47461C13.4665 8.47917 13.6305 8.53841 13.79 8.65234C13.9541 8.76628 14.0977 8.92578 14.2207 9.13086C14.3438 9.33594 14.4395 9.58203 14.5078 9.86914C14.5807 10.1562 14.6149 10.4775 14.6104 10.833C14.6012 11.2295 14.5534 11.5964 14.4668 11.9336C14.3802 12.2708 14.2594 12.5625 14.1045 12.8086C13.9541 13.0547 13.7718 13.2461 13.5576 13.3828C13.3434 13.5195 13.1064 13.5856 12.8467 13.5811C12.6006 13.5765 12.375 13.5218 12.1699 13.417C11.9694 13.3122 11.7985 13.1549 11.6572 12.9453C11.516 12.7357 11.4066 12.4714 11.3291 12.1523C11.2562 11.8333 11.2243 11.4574 11.2334 11.0244C11.2425 10.5915 11.3063 10.2132 11.4248 9.88965C11.5479 9.56152 11.6937 9.28809 11.8623 9.06934C12.0309 8.84603 12.2041 8.67741 12.3818 8.56348C12.5596 8.44499 12.71 8.37891 12.833 8.36523C12.9105 8.41992 12.9652 8.47233 12.9971 8.52246C13.0335 8.50879 13.0745 8.4974 13.1201 8.48828C13.1702 8.47917 13.2295 8.47461 13.2979 8.47461ZM13.9131 10.874C13.9176 10.6416 13.9017 10.4183 13.8652 10.2041C13.8288 9.98535 13.7786 9.79167 13.7148 9.62305C13.6556 9.45443 13.5872 9.31999 13.5098 9.21973C13.4323 9.11491 13.3548 9.06022 13.2773 9.05566C13.2181 9.06022 13.1589 9.07845 13.0996 9.11035C13.0495 9.14225 12.9948 9.1901 12.9355 9.25391C12.8763 9.31771 12.8216 9.40885 12.7715 9.52734C12.7259 9.46354 12.6963 9.39518 12.6826 9.32227C12.6735 9.24935 12.6735 9.17643 12.6826 9.10352C12.5596 9.19466 12.4525 9.30859 12.3613 9.44531C12.2702 9.57747 12.195 9.72559 12.1357 9.88965C12.0765 10.0492 12.0309 10.2201 11.999 10.4023C11.9671 10.5801 11.9489 10.7624 11.9443 10.9492C11.9352 11.3229 11.9535 11.6419 11.999 11.9062C12.0492 12.1706 12.1152 12.3893 12.1973 12.5625C12.2839 12.7311 12.3841 12.8564 12.498 12.9385C12.612 13.016 12.735 13.0547 12.8672 13.0547C13.0221 13.0592 13.1611 13.0046 13.2842 12.8906C13.4118 12.7721 13.5212 12.6126 13.6123 12.4121C13.7035 12.2116 13.7741 11.9792 13.8242 11.7148C13.8789 11.4505 13.9085 11.1702 13.9131 10.874ZM18.6299 13.335C18.5843 13.3988 18.5319 13.4466 18.4727 13.4785C18.4134 13.515 18.3564 13.54 18.3018 13.5537C18.238 13.5719 18.1696 13.5788 18.0967 13.5742C18.0693 13.5742 18.0397 13.5674 18.0078 13.5537C17.9805 13.5446 17.9508 13.5309 17.9189 13.5127C17.887 13.499 17.8597 13.4762 17.8369 13.4443C17.7731 13.2165 17.7161 12.9954 17.666 12.7812C17.6159 12.5671 17.5726 12.3757 17.5361 12.207C17.4906 12.0111 17.4518 11.8265 17.4199 11.6533C17.2969 11.6488 17.1123 11.6488 16.8662 11.6533C16.6247 11.6533 16.3626 11.667 16.0801 11.6943C15.9935 11.9678 15.9251 12.1979 15.875 12.3848C15.8249 12.5716 15.7884 12.7266 15.7656 12.8496C15.7428 12.9727 15.7337 13.0729 15.7383 13.1504C15.7428 13.2324 15.7565 13.3031 15.7793 13.3623C15.7155 13.4261 15.6517 13.4717 15.5879 13.499C15.5286 13.5309 15.474 13.5514 15.4238 13.5605C15.3646 13.5742 15.3076 13.5788 15.2529 13.5742C15.18 13.5651 15.1208 13.5514 15.0752 13.5332C15.0296 13.5195 14.9954 13.4945 14.9727 13.458C14.9544 13.4261 14.9476 13.3783 14.9521 13.3145C14.9613 13.2507 14.9795 13.1663 15.0068 13.0615C15.0342 12.9704 15.0843 12.8086 15.1572 12.5762C15.2347 12.3392 15.3213 12.0703 15.417 11.7695C15.2438 11.7832 15.1094 11.7741 15.0137 11.7422C14.9225 11.7103 14.8587 11.6237 14.8223 11.4824C14.8952 11.4596 14.9727 11.4391 15.0547 11.4209C15.1413 11.3981 15.2233 11.3776 15.3008 11.3594C15.3874 11.3411 15.4762 11.3252 15.5674 11.3115C15.6631 11.0107 15.7611 10.7145 15.8613 10.4229C15.9616 10.1312 16.055 9.86914 16.1416 9.63672L16.5381 8.57715C16.5472 8.5498 16.5951 8.52018 16.6816 8.48828C16.7682 8.45638 16.8639 8.43132 16.9688 8.41309C17.0736 8.3903 17.1738 8.37891 17.2695 8.37891C17.3652 8.37891 17.4268 8.39941 17.4541 8.44043C17.4678 8.53613 17.486 8.65462 17.5088 8.7959C17.5361 8.93717 17.5612 9.07389 17.584 9.20605C17.6113 9.361 17.6432 9.52051 17.6797 9.68457C17.7207 9.91243 17.764 10.1654 17.8096 10.4434C17.8597 10.7214 17.9212 11.0176 17.9941 11.332C18.0671 11.6465 18.1536 11.9723 18.2539 12.3096C18.3542 12.6468 18.4795 12.9886 18.6299 13.335ZM16.7295 11.1953C16.8753 11.1908 16.9961 11.1885 17.0918 11.1885C17.1875 11.1885 17.2695 11.1908 17.3379 11.1953L17.3174 11.0928C17.29 10.9242 17.2604 10.7441 17.2285 10.5527C17.2012 10.3613 17.1715 10.1722 17.1396 9.98535C17.1123 9.7985 17.085 9.62077 17.0576 9.45215C17.0303 9.28353 17.0075 9.13542 16.9893 9.00781C16.9437 9.1263 16.8913 9.26986 16.832 9.43848C16.7728 9.60254 16.709 9.78255 16.6406 9.97852C16.5723 10.1745 16.5016 10.3796 16.4287 10.5938C16.3604 10.8079 16.292 11.0199 16.2236 11.2295C16.3057 11.2204 16.3877 11.2135 16.4697 11.209C16.5518 11.2044 16.6383 11.1999 16.7295 11.1953ZM20.8721 8.47461C21.0407 8.47917 21.2048 8.53841 21.3643 8.65234C21.5283 8.76628 21.6719 8.92578 21.7949 9.13086C21.918 9.33594 22.0137 9.58203 22.082 9.86914C22.1549 10.1562 22.1891 10.4775 22.1846 10.833C22.1755 11.2295 22.1276 11.5964 22.041 11.9336C21.9544 12.2708 21.8337 12.5625 21.6787 12.8086C21.5283 13.0547 21.346 13.2461 21.1318 13.3828C20.9176 13.5195 20.6807 13.5856 20.4209 13.5811C20.1748 13.5765 19.9492 13.5218 19.7441 13.417C19.5436 13.3122 19.3727 13.1549 19.2314 12.9453C19.0902 12.7357 18.9808 12.4714 18.9033 12.1523C18.8304 11.8333 18.7985 11.4574 18.8076 11.0244C18.8167 10.5915 18.8805 10.2132 18.999 9.88965C19.1221 9.56152 19.2679 9.28809 19.4365 9.06934C19.6051 8.84603 19.7783 8.67741 19.9561 8.56348C20.1338 8.44499 20.2842 8.37891 20.4072 8.36523C20.4847 8.41992 20.5394 8.47233 20.5713 8.52246C20.6077 8.50879 20.6488 8.4974 20.6943 8.48828C20.7445 8.47917 20.8037 8.47461 20.8721 8.47461ZM21.4873 10.874C21.4919 10.6416 21.4759 10.4183 21.4395 10.2041C21.403 9.98535 21.3529 9.79167 21.2891 9.62305C21.2298 9.45443 21.1615 9.31999 21.084 9.21973C21.0065 9.11491 20.929 9.06022 20.8516 9.05566C20.7923 9.06022 20.7331 9.07845 20.6738 9.11035C20.6237 9.14225 20.569 9.1901 20.5098 9.25391C20.4505 9.31771 20.3958 9.40885 20.3457 9.52734C20.3001 9.46354 20.2705 9.39518 20.2568 9.32227C20.2477 9.24935 20.2477 9.17643 20.2568 9.10352C20.1338 9.19466 20.0267 9.30859 19.9355 9.44531C19.8444 9.57747 19.7692 9.72559 19.71 9.88965C19.6507 10.0492 19.6051 10.2201 19.5732 10.4023C19.5413 10.5801 19.5231 10.7624 19.5186 10.9492C19.5094 11.3229 19.5277 11.6419 19.5732 11.9062C19.6234 12.1706 19.6895 12.3893 19.7715 12.5625C19.8581 12.7311 19.9583 12.8564 20.0723 12.9385C20.1862 13.016 20.3092 13.0547 20.4414 13.0547C20.5964 13.0592 20.7354 13.0046 20.8584 12.8906C20.986 12.7721 21.0954 12.6126 21.1865 12.4121C21.2777 12.2116 21.3483 11.9792 21.3984 11.7148C21.4531 11.4505 21.4827 11.1702 21.4873 10.874ZM22.8477 9.82812C22.7839 9.8099 22.7178 9.78255 22.6494 9.74609C22.5856 9.70508 22.5264 9.65951 22.4717 9.60938C22.4215 9.55469 22.3828 9.49544 22.3555 9.43164C22.3281 9.36784 22.3213 9.29948 22.335 9.22656C22.3623 9.07617 22.4489 8.9349 22.5947 8.80273C22.7406 8.67057 22.9365 8.56576 23.1826 8.48828V8.46777C23.1872 8.41764 23.2191 8.36751 23.2783 8.31738C23.3421 8.2627 23.4196 8.22624 23.5107 8.20801C23.5973 8.18978 23.6589 8.18978 23.6953 8.20801C23.7363 8.22624 23.7568 8.2513 23.7568 8.2832C23.7568 8.29232 23.7546 8.30371 23.75 8.31738C23.75 8.3265 23.75 8.33561 23.75 8.34473V8.37891C23.9733 8.36068 24.2217 8.36751 24.4951 8.39941C24.8232 8.44043 25.0898 8.5179 25.2949 8.63184C25.5 8.74577 25.6549 8.87793 25.7598 9.02832C25.8646 9.17415 25.9284 9.32682 25.9512 9.48633C25.9785 9.64583 25.9785 9.79167 25.9512 9.92383C25.9238 10.0788 25.8737 10.2201 25.8008 10.3477C25.7279 10.4707 25.6413 10.5824 25.541 10.6826C25.4408 10.7783 25.3291 10.8626 25.2061 10.9355C25.083 11.0085 24.9531 11.07 24.8164 11.1201C24.9622 11.152 25.0853 11.2044 25.1855 11.2773C25.2904 11.3457 25.3747 11.4277 25.4385 11.5234C25.5023 11.6191 25.5479 11.7262 25.5752 11.8447C25.6025 11.9632 25.6117 12.084 25.6025 12.207C25.5934 12.3984 25.5433 12.5785 25.4521 12.7471C25.3656 12.9111 25.2471 13.0547 25.0967 13.1777C24.9463 13.3008 24.7663 13.3965 24.5566 13.4648C24.3516 13.5332 24.1237 13.5628 23.873 13.5537H23.791C23.7227 13.613 23.6475 13.6562 23.5654 13.6836C23.488 13.7155 23.4128 13.7383 23.3398 13.752C23.2578 13.7702 23.1758 13.777 23.0938 13.7725C23.0938 13.7406 23.0938 13.7064 23.0938 13.6699C23.0983 13.638 23.1006 13.6061 23.1006 13.5742C23.1006 13.5378 23.1029 13.5013 23.1074 13.4648C23.0527 13.4557 23.0003 13.4421 22.9502 13.4238C22.9046 13.4102 22.8568 13.3942 22.8066 13.376C22.7611 13.3623 22.7201 13.3464 22.6836 13.3281C22.6654 13.3008 22.6517 13.2666 22.6426 13.2256C22.6335 13.1891 22.6266 13.1481 22.6221 13.1025C22.6221 13.0615 22.6312 13.0137 22.6494 12.959C22.7907 13.0137 22.9525 13.0547 23.1348 13.082C23.1439 12.8496 23.1507 12.5739 23.1553 12.2549C23.1644 11.9359 23.1689 11.6009 23.1689 11.25C23.1689 10.8535 23.1689 10.4639 23.1689 10.0811C23.1735 9.69824 23.1758 9.37012 23.1758 9.09668C23.0436 9.16504 22.9411 9.25846 22.8682 9.37695C22.7952 9.49544 22.7884 9.64583 22.8477 9.82812ZM24.9531 12.2412C24.9714 12.0407 24.9417 11.8812 24.8643 11.7627C24.7868 11.6396 24.6842 11.5485 24.5566 11.4893C24.4336 11.4255 24.2969 11.3867 24.1465 11.373C24.0007 11.3594 23.8685 11.3571 23.75 11.3662C23.7591 11.7445 23.766 12.0885 23.7705 12.3984C23.7751 12.7038 23.7796 12.9544 23.7842 13.1504C23.9255 13.1549 24.0622 13.139 24.1943 13.1025C24.3265 13.0661 24.445 13.0091 24.5498 12.9316C24.6592 12.8542 24.7503 12.7585 24.8232 12.6445C24.8962 12.526 24.9395 12.3916 24.9531 12.2412ZM23.7363 8.93945C23.7272 9.17188 23.7227 9.44759 23.7227 9.7666C23.7227 10.0856 23.7272 10.4411 23.7363 10.833C23.7363 10.8695 23.7363 10.9059 23.7363 10.9424C23.7363 10.9743 23.7386 11.0085 23.7432 11.0449C23.9072 11.0312 24.0781 10.9925 24.2559 10.9287C24.4336 10.8604 24.5954 10.7715 24.7412 10.6621C24.8916 10.5527 25.0146 10.4251 25.1104 10.2793C25.2061 10.1289 25.2539 9.96484 25.2539 9.78711C25.2539 9.65039 25.2174 9.52962 25.1445 9.4248C25.0716 9.31543 24.9736 9.22428 24.8506 9.15137C24.7321 9.07845 24.5931 9.02376 24.4336 8.9873C24.2786 8.95085 24.1169 8.93262 23.9482 8.93262C23.9118 8.93262 23.8753 8.93262 23.8389 8.93262C23.807 8.93262 23.7728 8.9349 23.7363 8.93945ZM28.043 12.2959C27.9974 12.1546 27.9518 12.0293 27.9062 11.9199C27.8652 11.8105 27.8288 11.7171 27.7969 11.6396C27.6191 11.6989 27.4255 11.7399 27.2158 11.7627C27.2158 12.0544 27.2227 12.3027 27.2363 12.5078C27.2409 12.6354 27.2454 12.7448 27.25 12.8359C27.2591 12.9225 27.266 12.9977 27.2705 13.0615C27.2796 13.1253 27.2887 13.1823 27.2979 13.2324C27.307 13.2871 27.3206 13.3395 27.3389 13.3896C27.2477 13.458 27.1589 13.5081 27.0723 13.54C26.9902 13.5719 26.9173 13.5947 26.8535 13.6084C26.776 13.6266 26.7077 13.6312 26.6484 13.6221C26.6257 13.5583 26.6051 13.4899 26.5869 13.417C26.5687 13.3486 26.555 13.2529 26.5459 13.1299C26.5413 13.0114 26.5391 12.8587 26.5391 12.6719C26.5391 12.485 26.5459 12.2458 26.5596 11.9541C26.5641 11.9222 26.5664 11.8903 26.5664 11.8584C26.5664 11.8265 26.5687 11.7946 26.5732 11.7627C26.5322 11.7581 26.4889 11.7536 26.4434 11.749C26.4023 11.7445 26.3613 11.7399 26.3203 11.7354C26.293 11.6624 26.2747 11.5986 26.2656 11.5439C26.2565 11.4847 26.252 11.4368 26.252 11.4004C26.252 11.3548 26.2565 11.3184 26.2656 11.291C26.3385 11.3047 26.4115 11.3115 26.4844 11.3115H26.5869C26.596 11.1201 26.6051 10.9264 26.6143 10.7305C26.6234 10.5299 26.6302 10.3363 26.6348 10.1494C26.6439 9.95801 26.6507 9.77799 26.6553 9.60938C26.6598 9.4362 26.6644 9.27897 26.6689 9.1377C26.5322 9.22884 26.4137 9.34733 26.3135 9.49316C26.2132 9.639 26.1449 9.80762 26.1084 9.99902C26.0492 9.98991 25.999 9.96257 25.958 9.91699C25.917 9.86686 25.8828 9.81673 25.8555 9.7666C25.8236 9.70736 25.7962 9.64128 25.7734 9.56836C25.7507 9.48177 25.7507 9.39518 25.7734 9.30859C25.7962 9.21745 25.8304 9.13314 25.876 9.05566C25.9215 8.97363 25.974 8.90299 26.0332 8.84375C26.0924 8.77995 26.1494 8.72982 26.2041 8.69336C26.2998 8.63411 26.3978 8.58171 26.498 8.53613C26.6029 8.486 26.7191 8.44499 26.8467 8.41309C26.8968 8.36296 26.9515 8.31738 27.0107 8.27637C27.0745 8.23535 27.1338 8.21029 27.1885 8.20117C27.266 8.18294 27.3092 8.23079 27.3184 8.34473C27.3594 8.34017 27.4027 8.33789 27.4482 8.33789C27.4938 8.33333 27.5417 8.33105 27.5918 8.33105C27.765 8.33105 27.945 8.3584 28.1318 8.41309C28.3187 8.46777 28.4896 8.55664 28.6445 8.67969C28.804 8.79818 28.9339 8.9554 29.0342 9.15137C29.1344 9.34277 29.1846 9.57747 29.1846 9.85547C29.1846 10.1699 29.1094 10.4593 28.959 10.7236C28.8132 10.988 28.6035 11.2067 28.3301 11.3799C28.362 11.4619 28.403 11.5645 28.4531 11.6875C28.5033 11.8105 28.5534 11.9495 28.6035 12.1045C28.6764 12.2959 28.7539 12.4759 28.8359 12.6445C28.9225 12.8086 29.0114 12.9521 29.1025 13.0752C29.1937 13.1982 29.2894 13.2962 29.3896 13.3691C29.4899 13.4466 29.5902 13.4922 29.6904 13.5059C29.6312 13.597 29.5628 13.6608 29.4854 13.6973C29.4079 13.7337 29.3304 13.7565 29.2529 13.7656C29.1663 13.7793 29.0752 13.7793 28.9795 13.7656C28.8473 13.7383 28.7334 13.6745 28.6377 13.5742C28.542 13.474 28.4577 13.3532 28.3848 13.2119C28.3164 13.0706 28.2526 12.9202 28.1934 12.7607C28.1387 12.5967 28.0885 12.4417 28.043 12.2959ZM27.25 9.38379C27.25 9.48405 27.2477 9.60482 27.2432 9.74609C27.2386 9.88737 27.234 10.04 27.2295 10.2041C27.2295 10.3682 27.2272 10.5413 27.2227 10.7236C27.2181 10.9014 27.2158 11.0791 27.2158 11.2568C27.3389 11.2386 27.4733 11.209 27.6191 11.168C27.7695 11.127 27.9085 11.0586 28.0361 10.9629C28.1637 10.8672 28.2708 10.7396 28.3574 10.5801C28.444 10.4206 28.4873 10.2155 28.4873 9.96484C28.4873 9.77344 28.4531 9.61165 28.3848 9.47949C28.321 9.34277 28.2367 9.2334 28.1318 9.15137C28.027 9.06478 27.9108 9.00326 27.7832 8.9668C27.6602 8.92578 27.5371 8.90527 27.4141 8.90527C27.3913 8.90527 27.3685 8.90527 27.3457 8.90527C27.3229 8.90527 27.2979 8.90755 27.2705 8.91211C27.2568 9.05794 27.25 9.21517 27.25 9.38379ZM32.124 13.0752C32.124 13.1299 32.1263 13.1823 32.1309 13.2324C32.1309 13.278 32.1309 13.3281 32.1309 13.3828C32.1354 13.4375 32.1331 13.4922 32.124 13.5469C32.0602 13.4967 31.9827 13.4557 31.8916 13.4238C31.805 13.3965 31.6751 13.3783 31.502 13.3691C31.2285 13.3555 30.9551 13.3737 30.6816 13.4238C30.4128 13.474 30.1667 13.5332 29.9434 13.6016C29.8978 13.6152 29.8522 13.6084 29.8066 13.5811C29.7611 13.5583 29.7155 13.5195 29.6699 13.4648C29.6289 13.4147 29.5902 13.3555 29.5537 13.2871C29.5218 13.2188 29.4967 13.1481 29.4785 13.0752C29.4603 13.0023 29.4489 12.9202 29.4443 12.8291C29.4398 12.738 29.4466 12.6423 29.4648 12.542C29.4876 12.4372 29.5286 12.3301 29.5879 12.2207C29.6471 12.1113 29.7314 12.002 29.8408 11.8926C29.9411 11.7969 30.0824 11.6875 30.2646 11.5645C30.4515 11.4368 30.6361 11.2933 30.8184 11.1338C31.0052 10.9743 31.167 10.7965 31.3037 10.6006C31.4404 10.4046 31.5133 10.1859 31.5225 9.94434C31.5407 9.59798 31.4951 9.34049 31.3857 9.17188C31.2764 8.9987 31.1351 8.90527 30.9619 8.8916C30.7295 8.87337 30.5381 8.95996 30.3877 9.15137C30.2419 9.34277 30.1257 9.6276 30.0391 10.0059C30.0163 10.0195 29.9821 10.0195 29.9365 10.0059C29.891 9.99219 29.8477 9.97396 29.8066 9.95117C29.7565 9.92839 29.7041 9.89648 29.6494 9.85547C29.5993 9.81901 29.556 9.77116 29.5195 9.71191C29.4876 9.64811 29.474 9.58431 29.4785 9.52051C29.4831 9.43848 29.5173 9.3291 29.5811 9.19238C29.6449 9.05566 29.7406 8.92578 29.8682 8.80273C30.0003 8.67513 30.1644 8.57031 30.3604 8.48828C30.5609 8.40169 30.8001 8.36979 31.0781 8.39258C31.2331 8.40625 31.3789 8.45182 31.5156 8.5293C31.6523 8.60221 31.7708 8.70703 31.8711 8.84375C31.9714 8.98047 32.0488 9.14681 32.1035 9.34277C32.1582 9.53418 32.1787 9.75521 32.165 10.0059C32.1514 10.2702 32.083 10.5072 31.96 10.7168C31.8415 10.9219 31.7048 11.1019 31.5498 11.2568C31.3994 11.4118 31.249 11.5417 31.0986 11.6465C30.9482 11.7513 30.8343 11.8333 30.7568 11.8926C30.6611 11.9655 30.57 12.0361 30.4834 12.1045C30.3968 12.1683 30.3239 12.2412 30.2646 12.3232C30.21 12.4007 30.1735 12.4873 30.1553 12.583C30.137 12.6787 30.1462 12.7904 30.1826 12.918C30.292 12.877 30.4355 12.8337 30.6133 12.7881C30.7956 12.738 30.9984 12.7038 31.2217 12.6855C31.3857 12.6764 31.5225 12.6742 31.6318 12.6787C31.7412 12.6787 31.8301 12.6924 31.8984 12.7197C31.9668 12.7425 32.0169 12.7835 32.0488 12.8428C32.0853 12.8975 32.1104 12.9749 32.124 13.0752ZM34.3936 8.49512C34.5485 8.49512 34.6989 8.55208 34.8447 8.66602C34.9906 8.77539 35.1182 8.93262 35.2275 9.1377C35.3415 9.34277 35.4303 9.58887 35.4941 9.87598C35.5625 10.1631 35.5944 10.4844 35.5898 10.8398C35.5807 11.2363 35.5352 11.6055 35.4531 11.9473C35.3757 12.2845 35.2663 12.5762 35.125 12.8223C34.9883 13.0638 34.8242 13.2529 34.6328 13.3896C34.4414 13.5264 34.2272 13.5924 33.9902 13.5879C33.7624 13.5833 33.555 13.5286 33.3682 13.4238C33.1859 13.319 33.0286 13.1641 32.8965 12.959C32.7689 12.7493 32.6709 12.485 32.6025 12.166C32.5342 11.847 32.5046 11.4688 32.5137 11.0312C32.5228 10.5983 32.582 10.2201 32.6914 9.89648C32.8008 9.56836 32.9307 9.29492 33.0811 9.07617C33.236 8.85286 33.3932 8.68424 33.5527 8.57031C33.7168 8.45182 33.8558 8.38574 33.9697 8.37207C34.0381 8.41764 34.0859 8.47005 34.1133 8.5293C34.1452 8.52018 34.1839 8.51107 34.2295 8.50195C34.2751 8.49284 34.3298 8.49056 34.3936 8.49512ZM34.9268 10.8809C34.9313 10.653 34.9176 10.4342 34.8857 10.2246C34.8538 10.0104 34.8105 9.82129 34.7559 9.65723C34.7012 9.48861 34.6396 9.35417 34.5713 9.25391C34.5029 9.15365 34.4346 9.10352 34.3662 9.10352C34.3115 9.10807 34.2591 9.1263 34.209 9.1582C34.1634 9.18555 34.1133 9.23112 34.0586 9.29492C34.0085 9.35872 33.9606 9.44759 33.915 9.56152C33.8786 9.50228 33.8535 9.43848 33.8398 9.37012C33.8262 9.2972 33.8239 9.22428 33.833 9.15137C33.7236 9.24251 33.6302 9.35417 33.5527 9.48633C33.4753 9.61849 33.4092 9.76432 33.3545 9.92383C33.3044 10.0788 33.2656 10.2451 33.2383 10.4229C33.2109 10.6006 33.195 10.7783 33.1904 10.9561C33.1813 11.3206 33.1973 11.6328 33.2383 11.8926C33.2793 12.1523 33.3363 12.3665 33.4092 12.5352C33.4867 12.6992 33.5755 12.8223 33.6758 12.9043C33.7806 12.9818 33.8923 13.0205 34.0107 13.0205C34.1475 13.0251 34.2705 12.9704 34.3799 12.8564C34.4893 12.7425 34.5827 12.5876 34.6602 12.3916C34.7422 12.1956 34.806 11.9678 34.8516 11.708C34.8971 11.4482 34.9222 11.1725 34.9268 10.8809ZM37.8252 8.49512C37.9801 8.49512 38.1305 8.55208 38.2764 8.66602C38.4222 8.77539 38.5498 8.93262 38.6592 9.1377C38.7731 9.34277 38.862 9.58887 38.9258 9.87598C38.9941 10.1631 39.026 10.4844 39.0215 10.8398C39.0124 11.2363 38.9668 11.6055 38.8848 11.9473C38.8073 12.2845 38.6979 12.5762 38.5566 12.8223C38.4199 13.0638 38.2559 13.2529 38.0645 13.3896C37.873 13.5264 37.6589 13.5924 37.4219 13.5879C37.194 13.5833 36.9867 13.5286 36.7998 13.4238C36.6175 13.319 36.4603 13.1641 36.3281 12.959C36.2005 12.7493 36.1025 12.485 36.0342 12.166C35.9658 11.847 35.9362 11.4688 35.9453 11.0312C35.9544 10.5983 36.0137 10.2201 36.123 9.89648C36.2324 9.56836 36.3623 9.29492 36.5127 9.07617C36.6676 8.85286 36.8249 8.68424 36.9844 8.57031C37.1484 8.45182 37.2874 8.38574 37.4014 8.37207C37.4697 8.41764 37.5176 8.47005 37.5449 8.5293C37.5768 8.52018 37.6156 8.51107 37.6611 8.50195C37.7067 8.49284 37.7614 8.49056 37.8252 8.49512ZM38.3584 10.8809C38.363 10.653 38.3493 10.4342 38.3174 10.2246C38.2855 10.0104 38.2422 9.82129 38.1875 9.65723C38.1328 9.48861 38.0713 9.35417 38.0029 9.25391C37.9346 9.15365 37.8662 9.10352 37.7979 9.10352C37.7432 9.10807 37.6908 9.1263 37.6406 9.1582C37.5951 9.18555 37.5449 9.23112 37.4902 9.29492C37.4401 9.35872 37.3923 9.44759 37.3467 9.56152C37.3102 9.50228 37.2852 9.43848 37.2715 9.37012C37.2578 9.2972 37.2555 9.22428 37.2646 9.15137C37.1553 9.24251 37.0618 9.35417 36.9844 9.48633C36.9069 9.61849 36.8408 9.76432 36.7861 9.92383C36.736 10.0788 36.6973 10.2451 36.6699 10.4229C36.6426 10.6006 36.6266 10.7783 36.6221 10.9561C36.613 11.3206 36.6289 11.6328 36.6699 11.8926C36.7109 12.1523 36.7679 12.3665 36.8408 12.5352C36.9183 12.6992 37.0072 12.8223 37.1074 12.9043C37.2122 12.9818 37.3239 13.0205 37.4424 13.0205C37.5791 13.0251 37.7021 12.9704 37.8115 12.8564C37.9209 12.7425 38.0143 12.5876 38.0918 12.3916C38.1738 12.1956 38.2376 11.9678 38.2832 11.708C38.3288 11.4482 38.3538 11.1725 38.3584 10.8809Z" fill="#F3F3F3"/>
<g clip-path="url(#clip1)">
<path d="M45.0896 6L43.9104 7.17918L47.7313 11L43.9104 14.8208L45.0896 16L50.0896 11L45.0896 6Z" fill="white"/>
</g>
<path d="M6.08954 7.17918L4.9104 6L-0.0895996 11L4.9104 16L6.08954 14.8208L2.26872 11L6.08954 7.17918Z" fill="white"/>
<line x1="44.1127" y1="1.09564" x2="40.4908" y2="19.6807" stroke="white"/>
</g>
<defs>
<clipPath id="clip0">
<rect width="50" height="22" fill="white"/>
</clipPath>
<clipPath id="clip1">
<rect width="10" height="10" fill="white" transform="translate(42 6)"/>
</clipPath>
</defs>
</svg>
