<svg width="250" height="150" viewBox="0 0 250 150" fill="none" xmlns="http://www.w3.org/2000/svg">
<rect width="250" height="150" fill="white"/>
<path d="M45.7422 78.1348C45.5137 80.0898 44.79 81.6006 43.5713 82.667C42.361 83.7249 40.7487 84.2539 38.7344 84.2539C36.5508 84.2539 34.7988 83.471 33.4785 81.9053C32.1667 80.3395 31.5107 78.2448 31.5107 75.6211V73.8438C31.5107 72.1257 31.8154 70.6149 32.4248 69.3115C33.0426 68.0081 33.9144 67.0094 35.04 66.3154C36.1657 65.613 37.4691 65.2617 38.9502 65.2617C40.9137 65.2617 42.488 65.8118 43.6729 66.9121C44.8577 68.0039 45.5475 69.5189 45.7422 71.457H43.292C43.0804 69.9844 42.6191 68.918 41.9082 68.2578C41.2057 67.5977 40.2197 67.2676 38.9502 67.2676C37.3929 67.2676 36.1699 67.8431 35.2812 68.9941C34.401 70.1452 33.9609 71.7829 33.9609 73.9072V75.6973C33.9609 77.7031 34.3799 79.2985 35.2178 80.4834C36.0557 81.6683 37.2279 82.2607 38.7344 82.2607C40.0885 82.2607 41.1253 81.9561 41.8447 81.3467C42.5726 80.7288 43.055 79.6582 43.292 78.1348H45.7422ZM62.5193 75.4561H54.5086V82.0068H63.8142V84H52.0711V65.5156H63.6873V67.5215H54.5086V73.4629H62.5193V75.4561ZM76.6177 76.5225H72.2759V84H69.8257V65.5156H75.9448C78.0269 65.5156 79.6265 65.9896 80.7437 66.9375C81.8693 67.8854 82.4321 69.265 82.4321 71.0762C82.4321 72.2272 82.119 73.2301 81.4927 74.085C80.8749 74.9398 80.0116 75.5788 78.9029 76.002L83.2446 83.8477V84H80.6294L76.6177 76.5225ZM72.2759 74.5293H76.021C77.2313 74.5293 78.1919 74.2161 78.9029 73.5898C79.6223 72.9635 79.982 72.1257 79.982 71.0762C79.982 69.9336 79.6392 69.0576 78.9536 68.4482C78.2765 67.8389 77.2948 67.5299 76.0083 67.5215H72.2759V74.5293ZM100.606 67.5215H94.6643V84H92.2395V67.5215H86.3108V65.5156H100.606V67.5215ZM108.953 84H106.516V65.5156H108.953V84ZM126.606 75.8369H118.849V84H116.412V65.5156H127.863V67.5215H118.849V73.8438H126.606V75.8369ZM136.388 84H133.951V65.5156H136.388V84ZM157.444 78.1348C157.215 80.0898 156.492 81.6006 155.273 82.667C154.062 83.7249 152.45 84.2539 150.436 84.2539C148.252 84.2539 146.5 83.471 145.18 81.9053C143.868 80.3395 143.212 78.2448 143.212 75.6211V73.8438C143.212 72.1257 143.517 70.6149 144.126 69.3115C144.744 68.0081 145.616 67.0094 146.742 66.3154C147.867 65.613 149.171 65.2617 150.652 65.2617C152.615 65.2617 154.189 65.8118 155.374 66.9121C156.559 68.0039 157.249 69.5189 157.444 71.457H154.993C154.782 69.9844 154.321 68.918 153.61 68.2578C152.907 67.5977 151.921 67.2676 150.652 67.2676C149.094 67.2676 147.871 67.8431 146.983 68.9941C146.103 70.1452 145.662 71.7829 145.662 73.9072V75.6973C145.662 77.7031 146.081 79.2985 146.919 80.4834C147.757 81.6683 148.929 82.2607 150.436 82.2607C151.79 82.2607 152.827 81.9561 153.546 81.3467C154.274 80.7288 154.756 79.6582 154.993 78.1348H157.444ZM173.98 79.1758H166.235L164.496 84H161.982L169.041 65.5156H171.174L178.245 84H175.744L173.98 79.1758ZM166.972 77.1699H173.256L170.107 68.5244L166.972 77.1699ZM183.723 84V65.5156H188.941C190.549 65.5156 191.971 65.8711 193.207 66.582C194.443 67.293 195.395 68.3044 196.063 69.6162C196.74 70.9281 197.083 72.4346 197.092 74.1357V75.3164C197.092 77.0599 196.753 78.5876 196.076 79.8994C195.407 81.2113 194.447 82.2184 193.194 82.9209C191.95 83.6234 190.499 83.9831 188.84 84H183.723ZM186.161 67.5215V82.0068H188.725C190.604 82.0068 192.064 81.4229 193.105 80.2549C194.155 79.0869 194.68 77.4238 194.68 75.2656V74.1865C194.68 72.0876 194.184 70.4583 193.194 69.2988C192.212 68.1309 190.816 67.5384 189.005 67.5215H186.161ZM217.995 75.3545C217.995 77.1657 217.69 78.7484 217.081 80.1025C216.471 81.4482 215.608 82.4766 214.491 83.1875C213.374 83.8984 212.07 84.2539 210.581 84.2539C209.125 84.2539 207.834 83.8984 206.709 83.1875C205.583 82.4681 204.707 81.4482 204.081 80.1279C203.463 78.7992 203.145 77.263 203.129 75.5195V74.1865C203.129 72.4092 203.437 70.8392 204.055 69.4766C204.673 68.1139 205.545 67.0729 206.671 66.3535C207.805 65.6257 209.1 65.2617 210.555 65.2617C212.036 65.2617 213.34 65.6214 214.465 66.3408C215.6 67.0518 216.471 68.0885 217.081 69.4512C217.69 70.8053 217.995 72.3838 217.995 74.1865V75.3545ZM215.57 74.1611C215.57 71.9691 215.13 70.2891 214.25 69.1211C213.369 67.9447 212.138 67.3564 210.555 67.3564C209.015 67.3564 207.8 67.9447 206.912 69.1211C206.032 70.2891 205.579 71.9141 205.553 73.9961V75.3545C205.553 77.4788 205.998 79.1504 206.886 80.3691C207.783 81.5794 209.015 82.1846 210.581 82.1846C212.155 82.1846 213.374 81.6133 214.237 80.4707C215.1 79.3197 215.545 77.6735 215.57 75.5322V74.1611Z" fill="black"/>
<rect x="11.5" y="7.5" width="227" height="135" stroke="#161E2E" stroke-width="3"/>
<rect x="25.5" y="15.5" width="199" height="118" stroke="#161E2E" stroke-width="3"/>
</svg>
